<svg width="22" height="22" viewBox="0 0 22 22" fill="none" xmlns="http://www.w3.org/2000/svg">
<g clip-path="url(#clip0_988_106708)">
<path d="M14.6667 7.33628C15.0024 7.00083 15.0026 6.45673 14.6672 6.12098C14.3317 5.78523 13.7876 5.78502 13.4519 6.12047L6.00926 13.5567C5.00407 14.5619 5.00407 16.1974 6.00926 17.2026C7.01414 18.2074 8.64963 18.2082 9.65503 17.2029L19.5282 7.33603C21.2074 5.65684 21.2076 2.93891 19.5282 1.25947C17.8493 -0.419452 15.1312 -0.420139 13.4518 1.2593C13.4518 1.2593 2.97104 11.7337 2.97096 11.7337C0.625559 14.0792 0.625559 17.8955 2.971 20.2409C5.31636 22.5863 9.13263 22.5864 11.4782 20.2409L18.1624 13.5567C18.498 13.2211 18.498 12.677 18.1624 12.3414C17.8268 12.0058 17.2826 12.0058 16.9471 12.3414L10.2629 19.0256C8.58784 20.7007 5.86183 20.7012 4.1863 19.0256C2.51099 17.3503 2.51099 14.6244 4.1863 12.9491C4.1863 12.9491 4.18643 12.949 4.18647 12.9489L14.667 2.47478C15.6744 1.46727 17.3052 1.46714 18.3129 2.47478C19.3201 3.48203 19.3207 5.11291 18.3131 6.12051L8.43986 15.9873C8.10484 16.3224 7.55962 16.3224 7.2246 15.9873C6.8895 15.6523 6.8895 15.1071 7.2243 14.7723L14.6667 7.33628Z" fill="black"/>
</g>
<defs>
<clipPath id="clip0_988_106708">
<rect width="22" height="22" fill="white"/>
</clipPath>
</defs>
</svg>
