<svg width="36" height="36" viewBox="0 0 36 36" fill="none" xmlns="http://www.w3.org/2000/svg">
<rect x="2" y="2" width="32" height="32" rx="16" fill="#C9DAE5"/>
<rect x="2" y="2" width="32" height="32" rx="16" stroke="#EEF3F7" stroke-width="4"/>
<path d="M18.666 11.3333H13.9993C13.6457 11.3333 13.3066 11.4738 13.0565 11.7239C12.8065 11.9739 12.666 12.3131 12.666 12.6667V23.3333C12.666 23.687 12.8065 24.0261 13.0565 24.2762C13.3066 24.5262 13.6457 24.6667 13.9993 24.6667H21.9993C22.353 24.6667 22.6921 24.5262 22.9422 24.2762C23.1922 24.0261 23.3327 23.687 23.3327 23.3333V16M18.666 11.3333L23.3327 16M18.666 11.3333V16H23.3327" stroke="#5089AC" stroke-width="1.33333" stroke-linecap="round" stroke-linejoin="round"/>
</svg>
