<svg width="200" height="200" viewBox="0 0 200 200" fill="none" xmlns="http://www.w3.org/2000/svg">
<g clip-path="url(#clip0_4952_69174)">
<path d="M100 179.333C144.183 179.333 180 143.516 180 99.3335C180 55.1507 144.183 19.3335 100 19.3335C55.8172 19.3335 20 55.1507 20 99.3335C20 143.516 55.8172 179.333 100 179.333Z" fill="url(#paint0_linear_4952_69174)"/>
<g filter="url(#filter0_d_4952_69174)">
<rect x="59.3335" y="42.3711" width="83.0247" height="103.353" rx="10.6667" fill="white"/>
</g>
<rect x="66.6665" y="55.7046" width="33.3333" height="6.53333" rx="3.26667" fill="#5089AC"/>
<rect x="66.6665" y="74.2378" width="66.6667" height="6.53333" rx="3.26667" fill="#D5D5D5"/>
<rect x="66.6665" y="92.771" width="66.6667" height="6.53333" rx="3.26667" fill="#D5D5D5"/>
<rect x="66.6665" y="111.304" width="66.6667" height="6.53333" rx="3.26667" fill="#D5D5D5"/>
<rect x="66.6665" y="129.838" width="66.6667" height="6.53333" rx="3.26667" fill="#D5D5D5"/>
<g filter="url(#filter1_d_4952_69174)">
<path d="M192.1 30.9492H152.046C150.18 30.9492 148.667 32.5416 148.667 34.5058V54.3186C148.667 56.2828 150.18 57.8752 152.046 57.8752H192.1C193.966 57.8752 195.479 56.2828 195.479 54.3186V34.5058C195.479 32.5416 193.966 30.9492 192.1 30.9492Z" fill="white"/>
</g>
<path d="M158.667 48.6665C160.876 48.6665 162.667 46.8756 162.667 44.6665C162.667 42.4574 160.876 40.6665 158.667 40.6665C156.457 40.6665 154.667 42.4574 154.667 44.6665C154.667 46.8756 156.457 48.6665 158.667 48.6665Z" fill="#CCC6D9"/>
<rect x="168" y="40.6665" width="21.3333" height="8" rx="4" fill="#D5D5D5"/>
<path fill-rule="evenodd" clip-rule="evenodd" d="M123.406 150.376C131.993 150.376 139.973 147.778 146.604 143.327L173.736 169.227L183.576 157.811L157.394 132.817C162.23 126.012 165.073 117.693 165.073 108.709C165.073 85.6973 146.418 67.0425 123.406 67.0425C100.395 67.0425 81.7397 85.6973 81.7397 108.709C81.7397 131.721 100.395 150.376 123.406 150.376ZM158.946 108.709C158.946 128.191 143.152 143.985 123.67 143.985C104.188 143.985 88.3945 128.191 88.3945 108.709C88.3945 89.227 104.188 73.4336 123.67 73.4336C143.152 73.4336 158.946 89.227 158.946 108.709Z" fill="#CCC6D9"/>
<g filter="url(#filter2_b_4952_69174)">
<path d="M123.667 144.667C143.733 144.667 160 128.549 160 108.667C160 88.7843 143.733 72.6665 123.667 72.6665C103.6 72.6665 87.3335 88.7843 87.3335 108.667C87.3335 128.549 103.6 144.667 123.667 144.667Z" fill="white" fill-opacity="0.3"/>
</g>
<path d="M129.949 108.667L138.741 99.9081C139.565 99.0416 140.016 97.89 139.999 96.6981C139.982 95.5061 139.498 94.3677 138.65 93.5247C137.802 92.6818 136.657 92.2008 135.458 92.1839C134.258 92.167 133.1 92.6156 132.228 93.4343L123.416 102.193L114.623 93.4343C114.2 92.9893 113.691 92.6331 113.127 92.3868C112.563 92.1405 111.955 92.0091 111.339 92.0005C110.723 91.9918 110.112 92.106 109.541 92.3363C108.97 92.5666 108.452 92.9083 108.016 93.3413C107.58 93.7743 107.237 94.2896 107.005 94.857C106.773 95.4243 106.658 96.0321 106.667 96.6443C106.676 97.2566 106.808 97.8609 107.056 98.4214C107.303 98.982 107.662 99.4875 108.11 99.9081L116.917 108.667L108.11 117.425C107.662 117.846 107.303 118.351 107.056 118.912C106.808 119.472 106.676 120.077 106.667 120.689C106.658 121.301 106.773 121.909 107.005 122.476C107.237 123.044 107.58 123.559 108.016 123.992C108.452 124.425 108.97 124.767 109.541 124.997C110.112 125.227 110.723 125.342 111.339 125.333C111.955 125.324 112.563 125.193 113.127 124.947C113.691 124.7 114.2 124.344 114.623 123.899L123.435 115.14L132.248 123.899C133.128 124.669 134.27 125.077 135.442 125.04C136.614 125.002 137.728 124.521 138.556 123.696C139.384 122.87 139.864 121.762 139.899 120.597C139.933 119.432 139.519 118.298 138.741 117.425L129.949 108.667Z" fill="#5089AC"/>
<path d="M173.734 169.229L183.575 157.812L185.057 159.227C186.495 160.599 187.356 162.517 187.45 164.558C187.545 166.599 186.865 168.595 185.561 170.109C184.256 171.622 182.434 172.528 180.495 172.628C178.556 172.727 176.658 172.012 175.22 170.639L173.738 169.224L173.734 169.229Z" fill="#E1DCEB"/>
<path fill-rule="evenodd" clip-rule="evenodd" d="M37.5428 60.7811C37.5302 59.8304 37.411 58.8715 37.1725 57.9061C36.336 54.5181 32.6041 52.3429 28.6321 51.8315C24.6616 51.3201 20.5327 52.4839 18.9414 55.431C18.0312 57.116 17.9056 58.5683 18.2776 59.7927C18.6479 61.0106 19.5267 62.0203 20.7194 62.807C24.0448 64.9985 29.8687 65.446 32.5256 64.5298C33.7544 64.1052 34.9549 63.5939 36.1241 63.0087C35.4556 66.8393 32.965 70.4683 29.6411 73.7383C22.4174 80.8455 11.2076 86.2398 5.10288 88.2232C4.77489 88.3297 4.59283 88.6936 4.69483 89.0362C4.79684 89.3787 5.14523 89.5705 5.47322 89.464C11.6988 87.4413 23.1268 81.9323 30.4933 74.6841C34.299 70.9404 37.0108 66.7262 37.4738 62.2957C46.0769 57.4947 53.1421 48.7844 59.1825 41.4543C59.4069 41.1839 59.3771 40.7724 59.1166 40.538C58.8561 40.3053 58.4637 40.3348 58.2393 40.6069C52.4453 47.637 45.7206 55.9998 37.5428 60.7811ZM36.2921 61.4777C36.3391 60.409 36.2387 59.3239 35.9672 58.229C35.2437 55.2966 31.9183 53.5625 28.4798 53.1199C26.3722 52.8494 24.205 53.0724 22.5054 53.8657C21.4366 54.364 20.5562 55.0868 20.0258 56.0703C19.329 57.3603 19.1783 58.4634 19.4639 59.3994C19.7495 60.3418 20.459 61.0991 21.3833 61.7072C24.4137 63.7053 29.7165 64.1298 32.1348 63.2955C33.5614 62.8038 34.9456 62.1908 36.2921 61.4777Z" fill="#5089AC"/>
<circle cx="190" cy="122.667" r="4" fill="#417BA4"/>
<path fill-rule="evenodd" clip-rule="evenodd" d="M38.9227 150.263C39.6365 149.995 40.3877 149.64 40.967 149.124C41.655 148.513 41.9348 147.725 42.1227 146.895C42.3639 145.83 42.4603 144.695 42.7528 143.627C42.8611 143.231 43.0696 143.081 43.159 143.015C43.385 142.847 43.6135 142.802 43.8285 142.819C44.0833 142.838 44.4332 142.94 44.6634 143.389C44.6962 143.453 44.7389 143.551 44.7676 143.686C44.7885 143.784 44.8021 144.092 44.8242 144.219C44.8796 144.531 44.926 144.844 44.9694 145.158C45.1143 146.205 45.1975 147.093 45.655 148.054C46.2757 149.359 46.8977 150.157 47.7411 150.511C48.5567 150.853 49.5319 150.788 50.7779 150.52C50.8964 150.49 51.0137 150.464 51.1298 150.443C51.6792 150.342 52.2043 150.722 52.3122 151.298C52.4201 151.873 52.071 152.434 51.5266 152.56C51.4129 152.587 51.3009 152.612 51.1902 152.635C49.5065 153.073 47.5573 154.639 46.4246 156.01C46.0755 156.432 45.5643 157.614 45.0429 158.368C44.6581 158.924 44.2256 159.291 43.8626 159.42C43.6193 159.507 43.4142 159.494 43.2447 159.45C42.9986 159.386 42.7943 159.246 42.6376 159.022C42.5522 158.9 42.473 158.737 42.4353 158.528C42.4172 158.427 42.4152 158.171 42.4156 158.056C42.3093 157.671 42.1793 157.295 42.0845 156.907C41.8585 155.981 41.415 155.395 40.8882 154.62C40.3955 153.895 39.8663 153.44 39.0905 153.076C38.9896 153.05 38.1752 152.841 37.8876 152.72C37.4675 152.544 37.2673 152.248 37.1947 152.088C37.0712 151.818 37.0585 151.582 37.0831 151.385C37.1196 151.095 37.2435 150.846 37.4634 150.645C37.5996 150.52 37.8031 150.399 38.0755 150.34C38.286 150.294 38.8443 150.267 38.9227 150.263ZM43.7001 148.754C43.7379 148.842 43.7781 148.931 43.8207 149.021C44.7299 150.932 45.7465 151.999 46.9822 152.516L47.0236 152.533C46.1969 153.179 45.4486 153.901 44.8767 154.593C44.6412 154.878 44.3294 155.47 43.9926 156.077C43.6866 155.03 43.1861 154.29 42.5567 153.364C42.0759 152.657 41.5721 152.125 40.953 151.692C41.4334 151.432 41.8917 151.128 42.2909 150.773C42.9555 150.182 43.3949 149.498 43.7001 148.754Z" fill="#417BA4"/>
</g>
<defs>
<filter id="filter0_d_4952_69174" x="29.3335" y="32.3711" width="143.025" height="163.353" filterUnits="userSpaceOnUse" color-interpolation-filters="sRGB">
<feFlood flood-opacity="0" result="BackgroundImageFix"/>
<feColorMatrix in="SourceAlpha" type="matrix" values="0 0 0 0 0 0 0 0 0 0 0 0 0 0 0 0 0 0 127 0" result="hardAlpha"/>
<feOffset dy="20"/>
<feGaussianBlur stdDeviation="15"/>
<feComposite in2="hardAlpha" operator="out"/>
<feColorMatrix type="matrix" values="0 0 0 0 0.570833 0 0 0 0 0.570833 0 0 0 0 0.570833 0 0 0 0.19 0"/>
<feBlend mode="normal" in2="BackgroundImageFix" result="effect1_dropShadow_4952_69174"/>
<feBlend mode="normal" in="SourceGraphic" in2="effect1_dropShadow_4952_69174" result="shape"/>
</filter>
<filter id="filter1_d_4952_69174" x="144" y="24.9492" width="64.1461" height="44.2591" filterUnits="userSpaceOnUse" color-interpolation-filters="sRGB">
<feFlood flood-opacity="0" result="BackgroundImageFix"/>
<feColorMatrix in="SourceAlpha" type="matrix" values="0 0 0 0 0 0 0 0 0 0 0 0 0 0 0 0 0 0 127 0" result="hardAlpha"/>
<feOffset dx="4" dy="2.66667"/>
<feGaussianBlur stdDeviation="4.33333"/>
<feComposite in2="hardAlpha" operator="out"/>
<feColorMatrix type="matrix" values="0 0 0 0 0.104618 0 0 0 0 0.465612 0 0 0 0 0.545833 0 0 0 0.09 0"/>
<feBlend mode="normal" in2="BackgroundImageFix" result="effect1_dropShadow_4952_69174"/>
<feBlend mode="normal" in="SourceGraphic" in2="effect1_dropShadow_4952_69174" result="shape"/>
</filter>
<filter id="filter2_b_4952_69174" x="79.3335" y="64.6665" width="88.6665" height="88" filterUnits="userSpaceOnUse" color-interpolation-filters="sRGB">
<feFlood flood-opacity="0" result="BackgroundImageFix"/>
<feGaussianBlur in="BackgroundImageFix" stdDeviation="4"/>
<feComposite in2="SourceAlpha" operator="in" result="effect1_backgroundBlur_4952_69174"/>
<feBlend mode="normal" in="SourceGraphic" in2="effect1_backgroundBlur_4952_69174" result="shape"/>
</filter>
<linearGradient id="paint0_linear_4952_69174" x1="99.3833" y1="-6.71647" x2="101.022" y2="274.231" gradientUnits="userSpaceOnUse">
<stop stop-color="#F2F2F2"/>
<stop offset="1" stop-color="#EFEFEF"/>
</linearGradient>
<clipPath id="clip0_4952_69174">
<rect width="200" height="200" fill="white"/>
</clipPath>
</defs>
</svg>
