<svg width="280" height="36" viewBox="0 0 280 36" fill="none" xmlns="http://www.w3.org/2000/svg">
<path d="M142.131 0.388105H117.088C116.649 0.364054 116.209 0.426268 115.794 0.571152C115.38 0.716036 114.998 0.940721 114.672 1.23223C114.377 1.5324 114.149 1.89018 114.002 2.28265C113.855 2.67512 113.793 3.09363 113.819 3.51136C113.772 3.94381 113.825 4.38102 113.972 4.7907C114.12 5.20039 114.358 5.5721 114.67 5.87838C114.983 6.18466 115.36 6.41769 115.776 6.56027C116.191 6.70284 116.634 6.75133 117.071 6.70214H125.751V31.5193C125.684 32.5664 126.037 33.5974 126.733 34.3893C127.536 35.0387 128.542 35.3934 129.579 35.3934C130.617 35.3934 131.622 35.0387 132.426 34.3893C133.107 33.5904 133.449 32.5621 133.382 31.5193V6.67682H142.114C142.545 6.7007 142.976 6.63825 143.383 6.4932C143.789 6.34815 144.161 6.1235 144.478 5.83269C144.772 5.51617 144.998 5.14478 145.145 4.74035C145.292 4.33591 145.355 3.90659 145.331 3.47759C145.356 3.05996 145.293 2.64174 145.147 2.24943C145 1.85711 144.772 1.49923 144.478 1.19846C144.16 0.917362 143.789 0.701093 143.386 0.562039C142.983 0.422985 142.557 0.363878 142.131 0.388105Z" fill="white"/>
<path d="M173.054 24.7331C172.469 23.5031 171.561 22.4507 170.425 21.6858C169.911 21.3675 169.353 21.123 168.769 20.9599C169.514 20.7813 170.24 20.5325 170.937 20.2171C172.657 19.4503 174.101 18.1844 175.077 16.5873C176.079 14.8947 176.587 12.9604 176.545 10.9993C176.545 7.66498 175.486 5.09041 173.361 3.19957C171.236 1.30874 168.24 0.397087 164.407 0.397087H152.347C151.823 0.345347 151.294 0.410668 150.799 0.58823C150.304 0.765792 149.855 1.05106 149.486 1.42297C149.118 1.79488 148.838 2.24394 148.669 2.73698C148.499 3.23003 148.443 3.75448 148.506 4.27161V31.4945C148.472 32.0138 148.542 32.5346 148.712 33.027C148.882 33.5195 149.148 33.974 149.496 34.3646C150.297 35.0148 151.302 35.3701 152.338 35.3701C153.375 35.3701 154.379 35.0148 155.181 34.3646C155.865 33.5673 156.208 32.5378 156.137 31.4945V21.6352H159.841C160.741 21.6065 161.636 21.7646 162.47 22.0995C163.267 22.4998 163.891 23.1712 164.228 23.9903L169.008 32.6172C169.428 33.449 170.046 34.1674 170.809 34.7107C171.604 35.1813 172.521 35.4103 173.447 35.3691C174.328 35.432 175.203 35.1805 175.913 34.66C176.188 34.4296 176.411 34.1443 176.567 33.8228C176.723 33.5013 176.808 33.1509 176.818 32.7945C176.853 31.9556 176.623 31.1267 176.161 30.4225L173.054 24.7331ZM163.05 16.0978H156.145V6.33971H163.05C164.668 6.22764 166.277 6.65891 167.617 7.56368C168.148 8.00356 168.566 8.56211 168.836 9.19322C169.106 9.82433 169.221 10.5099 169.17 11.1934C169.218 11.884 169.103 12.5762 168.833 13.215C168.563 13.8538 168.147 14.4218 167.617 14.8738C166.277 15.7786 164.668 16.2098 163.05 16.0978Z" fill="white"/>
<path d="M201.776 3.09C201.372 2.15936 200.727 1.35013 199.907 0.743345C199.165 0.24615 198.285 -0.0131852 197.389 0.000516229C196.503 -0.0128375 195.635 0.246777 194.905 0.743345C194.07 1.34148 193.415 2.15255 193.01 3.09L180.335 30.659C179.961 31.4001 179.824 32.2364 179.943 33.0563C179.997 33.393 180.119 33.7157 180.3 34.0055C180.482 34.2953 180.72 34.5465 181.001 34.7446C181.664 35.1801 182.45 35.3959 183.246 35.3608C184.118 35.4293 184.982 35.1565 185.653 34.6011C186.32 33.8894 186.855 33.0663 187.232 32.17L189.238 27.4598H205.498L207.538 32.17C207.868 33.0958 208.418 33.9295 209.142 34.6011C209.878 35.1467 210.785 35.416 211.703 35.3608C212.467 35.3826 213.219 35.1671 213.854 34.7446C214.134 34.5487 214.371 34.2976 214.548 34.0071C214.726 33.7166 214.841 33.3929 214.887 33.0563C214.978 32.2206 214.814 31.377 214.417 30.6337L201.776 3.09ZM197.346 8.49238H197.44L203.005 21.5425H191.824L197.346 8.49238Z" fill="white"/>
<path d="M224.898 1.08963C224.514 0.74503 224.063 0.480096 223.574 0.310468C223.084 0.14084 222.565 0.0699555 222.047 0.102001C221.534 0.0682209 221.02 0.138398 220.536 0.308229C220.051 0.478059 219.607 0.743962 219.23 1.08963C218.883 1.47315 218.617 1.92188 218.448 2.40913C218.28 2.89638 218.212 3.41218 218.249 3.92587V31.5962C218.182 32.6341 218.532 33.6563 219.222 34.4409C219.597 34.7896 220.041 35.0586 220.525 35.2313C221.01 35.4041 221.525 35.4769 222.039 35.4454C222.562 35.4847 223.089 35.4157 223.584 35.2427C224.079 35.0698 224.532 34.7967 224.915 34.4409C225.602 33.645 225.948 32.6153 225.88 31.5709V3.92587C225.916 3.41226 225.847 2.89671 225.679 2.4096C225.51 1.92249 225.245 1.47368 224.898 1.08963Z" fill="white"/>
<path d="M251.805 9.47235L245.28 15.9247C244.83 16.3697 244.83 17.0912 245.28 17.5363L251.805 23.9886C252.255 24.4336 252.984 24.4336 253.434 23.9886L259.959 17.5363C260.409 17.0912 260.409 16.3697 259.959 15.9247L253.434 9.47235C252.984 9.02732 252.255 9.02733 251.805 9.47235Z" fill="white"/>
<path d="M245.869 30.0171L233.578 17.0008L245.221 5.18305C245.838 4.61777 246.226 3.84969 246.313 3.02209C246.352 2.65256 246.314 2.27903 246.201 1.92471C246.088 1.57038 245.903 1.24284 245.656 0.962436C245.325 0.652392 244.93 0.416516 244.499 0.270856C244.067 0.125197 243.609 0.0731694 243.155 0.118314C242.436 0.107553 241.725 0.266723 241.081 0.58258C240.41 0.924958 239.806 1.38224 239.297 1.93318L228.201 13.4048C227.501 14.0717 226.494 15.0171 225.811 15.743C225.553 16.0164 225.36 16.3429 225.245 16.699C225.13 17.0551 225.096 17.432 225.145 17.8027C225.349 18.6905 225.894 19.4653 226.665 19.9636C226.938 20.2 227.288 20.5461 227.638 20.9006L228.688 21.998L239.459 33.2248C240.053 33.8407 240.698 34.4055 241.388 34.913C242.068 35.3386 242.864 35.5451 243.667 35.5039C244.6 35.5678 245.521 35.2644 246.228 34.6598C246.518 34.3843 246.744 34.0501 246.892 33.68C247.039 33.31 247.104 32.9128 247.082 32.5157C247.054 32.0448 246.933 31.5839 246.725 31.1594C246.517 30.735 246.226 30.3554 245.869 30.0424V30.0171Z" fill="white"/>
<path d="M259.253 30.0177L271.544 17.0014L259.902 5.18367C259.284 4.61839 258.896 3.85031 258.809 3.02272C258.772 2.65262 258.811 2.27887 258.926 1.92459C259.04 1.57032 259.227 1.24305 259.475 0.963059C259.804 0.65228 260.197 0.415843 260.627 0.270098C261.058 0.124353 261.515 0.0727777 261.967 0.118937C262.689 0.109416 263.402 0.268486 264.05 0.583203C264.718 0.925816 265.319 1.38313 265.825 1.9338L276.921 13.4054C277.621 14.0723 278.628 15.0177 279.311 15.7436C279.569 16.0171 279.762 16.3435 279.878 16.6997C279.993 17.0558 280.027 17.4327 279.977 17.8033C279.766 18.6883 279.223 19.4609 278.458 19.9642C278.176 20.2006 277.826 20.5467 277.476 20.9012L276.409 21.9817L265.646 33.2085C265.051 33.8224 264.405 34.387 263.717 34.8968C263.037 35.3203 262.241 35.5266 261.438 35.4877C260.505 35.5497 259.586 35.2465 258.877 34.6435C258.589 34.3667 258.364 34.0323 258.217 33.6626C258.069 33.2928 258.004 32.8963 258.024 32.4995C258.051 32.0286 258.172 31.5676 258.38 31.1432C258.588 30.7187 258.879 30.3391 259.236 30.0262L259.253 30.0177Z" fill="white"/>
<path d="M24.5585 25.0955C23.97 23.8675 23.0592 22.8181 21.921 22.0567C21.4122 21.7337 20.8568 21.4889 20.2737 21.3307C21.019 21.1494 21.745 20.8978 22.4417 20.5795C24.1618 19.8127 25.6056 18.5468 26.5814 16.9497C27.5696 15.2531 28.063 13.3188 28.0068 11.3617C28.0068 8.03581 26.957 5.4528 24.8316 3.57041C22.7063 1.68802 19.7104 0.767924 15.878 0.767924H3.85153C3.33839 0.736744 2.82413 0.807302 2.33896 0.975454C1.85379 1.14361 1.40749 1.40596 1.0263 1.74711C0.666807 2.13604 0.391319 2.59341 0.216675 3.09124C0.0420312 3.58907 -0.028097 4.11689 0.0105795 4.64244V31.9076C-0.0234646 32.4256 0.0464962 32.9451 0.216428 33.4362C0.386359 33.9274 0.652901 34.3804 1.00069 34.7692C1.37372 35.1191 1.81544 35.3896 2.29848 35.5638C2.78152 35.7381 3.29559 35.8124 3.80885 35.7821C4.33448 35.8204 4.86242 35.7502 5.3591 35.5758C5.85578 35.4014 6.31033 35.1267 6.69383 34.7692C7.37117 33.9719 7.71064 32.9466 7.64126 31.9076V22.006H11.3371C12.2394 21.9766 13.1379 22.1348 13.9746 22.4703C14.7529 22.8757 15.3585 23.5436 15.6816 24.3527L20.4956 32.9881C20.9154 33.8177 21.5336 34.5334 22.2966 35.073C23.0901 35.5476 24.0077 35.7796 24.9341 35.7399C25.8165 35.7989 26.6912 35.5445 27.4008 35.0224C27.672 34.7905 27.8923 34.5061 28.0479 34.1867C28.2035 33.8672 28.2912 33.5196 28.3056 33.1653C28.3349 32.3244 28.1057 31.4944 27.6483 30.7849L24.5585 25.0955ZM19.1214 15.2446C17.7726 16.1568 16.1503 16.5884 14.5208 16.4686H7.69247V6.71054H14.5208C16.1403 6.59691 17.7507 7.03153 19.0873 7.94296C19.618 8.38154 20.0356 8.93863 20.3057 9.56828C20.5758 10.1979 20.6906 10.8821 20.6407 11.5642C20.6948 12.2523 20.5855 12.9434 20.3218 13.5824C20.058 14.2213 19.647 14.7905 19.1214 15.2446Z" fill="white"/>
<path d="M54.1341 6.7028C54.5394 6.73185 54.9465 6.67952 55.3308 6.54897C55.7151 6.41841 56.0687 6.21232 56.3704 5.9431C56.6403 5.63983 56.8471 5.2869 56.9789 4.90451C57.1107 4.52212 57.165 4.11777 57.1386 3.71461C57.1857 3.31426 57.1402 2.90855 57.0055 2.52814C56.8708 2.14774 56.6504 1.8026 56.361 1.51882C56.0716 1.23503 55.7207 1.02003 55.3349 0.890068C54.9491 0.760104 54.5385 0.718577 54.1341 0.768626H36.9267C36.3883 0.734529 35.8486 0.808155 35.3397 0.985102C34.8308 1.16205 34.3632 1.43868 33.9649 1.79846C33.6006 2.20539 33.3217 2.67985 33.1444 3.19428C32.9671 3.7087 32.8949 4.25284 32.9321 4.79509V31.3258C32.8951 31.8668 32.9674 32.4096 33.1448 32.9226C33.3221 33.4356 33.6009 33.9086 33.9649 34.314C34.3632 34.6738 34.8308 34.9504 35.3397 35.1274C35.8486 35.3043 36.3883 35.378 36.9267 35.3439H54.1341C54.5394 35.3729 54.9465 35.3206 55.3308 35.19C55.7151 35.0595 56.0687 34.8534 56.3704 34.5842C56.6425 34.2926 56.8511 33.9488 56.9833 33.5742C57.1154 33.1995 57.1683 32.802 57.1386 32.4063C57.1772 31.6024 56.8917 30.8161 56.3448 30.22C56.0431 29.9508 55.6895 29.7447 55.3052 29.6142C54.9209 29.4836 54.5138 29.4313 54.1085 29.4603H40.2726V20.7321H53.0757C53.4866 20.7653 53.8999 20.7151 54.2904 20.5844C54.6808 20.4538 55.0401 20.2455 55.3462 19.9724C55.6108 19.6769 55.8128 19.3319 55.9404 18.9578C56.0679 18.5838 56.1184 18.1882 56.0887 17.7946C56.1495 16.9812 55.8825 16.1771 55.3462 15.5576C55.0401 15.2846 54.6808 15.0763 54.2904 14.9456C53.8999 14.815 53.4866 14.7647 53.0757 14.7979H40.2726V6.7028H54.1341Z" fill="white"/>
<path d="M83.4188 6.70325C83.8254 6.73247 84.2338 6.68025 84.6196 6.54972C85.0053 6.41918 85.3604 6.213 85.6637 5.94354C85.9336 5.64027 86.1403 5.28734 86.2721 4.90495C86.404 4.52256 86.4582 4.11821 86.4318 3.71505C86.4592 3.31826 86.4052 2.9201 86.2732 2.54442C86.1412 2.16875 85.9339 1.8233 85.6637 1.52878C85.3604 1.25931 85.0053 1.05314 84.6196 0.922598C84.2338 0.792059 83.8254 0.739839 83.4188 0.769068H66.2199C65.6816 0.734483 65.1417 0.80788 64.6327 0.984851C64.1237 1.16182 63.6562 1.43872 63.2581 1.7989C62.8907 2.20412 62.6092 2.67812 62.4304 3.19284C62.2515 3.70757 62.1789 4.25255 62.2168 4.79553V31.3263C62.1791 31.868 62.2518 32.4116 62.4307 32.9249C62.6096 33.4383 62.891 33.9108 63.2581 34.3145C63.6562 34.6747 64.1237 34.9516 64.6327 35.1285C65.1417 35.3055 65.6816 35.3789 66.2199 35.3443H83.4188C83.8254 35.3735 84.2338 35.3213 84.6196 35.1908C85.0053 35.0602 85.3604 34.8541 85.6637 34.5846C85.9358 34.293 86.1444 33.9492 86.2765 33.5746C86.4087 33.2 86.4615 32.8025 86.4318 32.4068C86.4613 32.0021 86.4085 31.5956 86.2765 31.2115C86.1446 30.8273 85.9362 30.4731 85.6637 30.1698C85.3604 29.9004 85.0053 29.6942 84.6196 29.5637C84.2338 29.4331 83.8254 29.3809 83.4188 29.4101H69.5658V20.7326H82.369C82.7736 20.7896 83.1861 20.7531 83.5741 20.6261C83.962 20.499 84.315 20.2848 84.6052 20.0002C84.8955 19.7156 85.1151 19.3684 85.2469 18.9858C85.3787 18.6032 85.4191 18.1956 85.3649 17.795C85.4234 16.9834 85.1601 16.1811 84.6309 15.5581C84.3246 15.2854 83.9652 15.0774 83.5748 14.9468C83.1845 14.8162 82.7712 14.7657 82.3604 14.7984H69.5573V6.70325H83.4188Z" fill="white"/>
<path d="M114.898 29.7649C114.576 29.4696 114.196 29.2424 113.782 29.0973C113.368 28.9521 112.929 28.8921 112.491 28.9208H99.2777V4.55098C99.3151 4.02821 99.2476 3.50328 99.0792 3.00639C98.9107 2.5095 98.6446 2.05045 98.2961 1.65564C97.9084 1.31388 97.4561 1.05141 96.9654 0.883353C96.4746 0.715295 95.9551 0.644978 95.4367 0.676457C94.9248 0.644502 94.4116 0.714724 93.9277 0.882944C93.4438 1.05116 92.9991 1.31394 92.62 1.65564C92.2715 2.05045 92.0054 2.5095 91.8369 3.00639C91.6685 3.50328 91.601 4.02821 91.6385 4.55098V31.4785C91.6097 31.9935 91.6838 32.5091 91.8566 32.9957C92.0294 33.4824 92.2975 33.9306 92.6456 34.3147C93.0208 34.6701 93.4662 34.945 93.9538 35.1222C94.4414 35.2994 94.9608 35.3751 95.4794 35.3446H112.491C112.929 35.3723 113.368 35.3117 113.782 35.1666C114.195 35.0215 114.575 34.7949 114.898 34.5004C115.193 34.1767 115.421 33.7981 115.568 33.3865C115.714 32.975 115.777 32.5387 115.751 32.1031C115.774 31.6768 115.71 31.2502 115.563 30.8487C115.417 30.4471 115.19 30.0786 114.898 29.7649Z" fill="white"/>
</svg>
