<svg width="200" height="200" viewBox="0 0 200 200" fill="none" xmlns="http://www.w3.org/2000/svg">
<path d="M96.3979 175.333C138.652 175.333 172.906 141.456 172.906 99.6667C172.906 57.8771 138.652 24 96.3979 24C54.1437 24 19.8899 57.8771 19.8899 99.6667C19.8899 141.456 54.1437 175.333 96.3979 175.333Z" fill="url(#paint0_linear_2519_16924)"/>
<path fill-rule="evenodd" clip-rule="evenodd" d="M162.408 147.901C163.106 147.656 163.839 147.329 164.405 146.856C165.077 146.295 165.35 145.572 165.534 144.81C165.769 143.832 165.864 142.79 166.149 141.811C166.255 141.447 166.459 141.309 166.546 141.248C166.767 141.094 166.99 141.053 167.2 141.068C167.449 141.086 167.791 141.179 168.015 141.592C168.047 141.651 168.089 141.741 168.117 141.864C168.138 141.955 168.151 142.237 168.172 142.354C168.226 142.641 168.272 142.927 168.314 143.216C168.456 144.176 168.537 144.992 168.984 145.874C169.59 147.071 170.198 147.804 171.021 148.129C171.818 148.443 172.77 148.384 173.987 148.137C174.103 148.11 174.218 148.086 174.331 148.067C174.868 147.974 175.38 148.322 175.486 148.851C175.591 149.379 175.25 149.894 174.719 150.01C174.608 150.034 174.498 150.057 174.39 150.078C172.746 150.481 170.842 151.918 169.735 153.176C169.394 153.564 168.895 154.649 168.386 155.34C168.01 155.851 167.588 156.187 167.233 156.306C166.996 156.386 166.795 156.374 166.63 156.334C166.389 156.275 166.19 156.146 166.037 155.941C165.953 155.829 165.876 155.679 165.839 155.487C165.821 155.395 165.82 155.16 165.82 155.054C165.716 154.701 165.589 154.356 165.497 154C165.276 153.15 164.843 152.612 164.328 151.901C163.847 151.235 163.33 150.817 162.572 150.484C162.474 150.46 161.678 150.267 161.397 150.157C160.987 149.994 160.792 149.723 160.721 149.577C160.6 149.329 160.588 149.112 160.612 148.931C160.647 148.665 160.768 148.436 160.983 148.252C161.116 148.137 161.315 148.026 161.581 147.972C161.787 147.929 162.332 147.905 162.408 147.901ZM167.074 146.516C167.111 146.597 167.151 146.679 167.192 146.761C168.08 148.515 169.073 149.494 170.28 149.97L170.321 149.985C169.513 150.578 168.782 151.24 168.224 151.876C167.994 152.137 167.689 152.681 167.36 153.238C167.061 152.277 166.572 151.597 165.958 150.747C165.488 150.099 164.996 149.611 164.391 149.213C164.861 148.974 165.308 148.695 165.698 148.37C166.347 147.827 166.776 147.199 167.074 146.516Z" fill="#E3E3E3"/>
<ellipse cx="9.62347" cy="84.922" rx="3.62347" ry="3.58363" fill="#E3E3E3"/>
<path d="M40.9554 52.8087C41.065 53.1886 41.4658 53.4072 41.8494 53.2962L40.9554 52.8087ZM40.9554 52.8087L40.6355 52.9025C39.7176 49.7724 37.9152 47.3316 35.1467 45.5646L35.1466 45.5645C34.6577 45.2522 34.5124 44.6015 34.8296 44.112C35.1432 43.6236 35.7961 43.4837 36.2841 43.7955C39.4935 45.8448 41.596 48.6871 42.6594 52.3126C42.8249 52.8726 42.4972 53.4549 41.9425 53.6163L41.942 53.6164C41.3845 53.7778 40.7966 53.4609 40.6351 52.9011L40.9554 52.8087Z" fill="#5089AC" stroke="#5089AC" stroke-width="0.666667"/>
<path d="M45.4111 76.8006L45.0908 76.8929C44.8972 76.2206 44.6689 75.5622 44.4366 74.8922C44.4027 74.7944 44.3687 74.6964 44.3347 74.598L44.3345 74.5973C43.4569 72.0382 42.3205 69.6357 41.0527 67.2269L41.3477 67.0716L41.0527 67.2268C40.7122 66.5798 40.3729 65.9302 40.0332 65.2798C36.3303 58.1905 32.5708 50.993 26.5548 45.6802L26.5547 45.6801C26.1206 45.2965 26.0768 44.6313 26.466 44.1962C26.8518 43.7617 27.5168 43.7252 27.9526 44.107L27.9535 44.1078C34.2402 49.6582 38.1684 57.1692 41.9674 64.433C42.2855 65.0412 42.6027 65.6476 42.9202 66.2511L42.9203 66.2511C43.7264 67.7834 44.4849 69.3208 45.1625 70.9C45.1305 67.3156 45.2419 62.8785 45.8428 58.8782C46.1565 56.7892 46.6131 54.8112 47.2485 53.1134C47.8826 51.419 48.703 49.9814 49.7574 48.9964L49.7574 48.9963C56.2877 42.8986 64.8808 41.5148 70.7651 45.6643L70.7652 45.6644C71.2745 46.0239 71.7647 46.4129 72.2291 46.83C75.3863 41.576 81.8106 39.5157 87.4977 42.0981C88.0289 42.3386 88.2619 42.9624 88.0209 43.4903L88.0209 43.4903L88.0199 43.4923C87.7756 44.0183 87.1526 44.2498 86.6228 44.0102L86.6224 44.01C81.7546 41.7996 76.2479 43.7125 73.7541 48.4133C74.2686 49.0345 74.7331 49.6997 75.1338 50.4051C75.3308 50.7512 75.6945 51.513 75.7528 52.196C75.819 52.9435 75.5589 53.6429 74.8358 54.0084L74.8356 54.0085C73.9953 54.4325 73.2787 54.4045 72.7064 54.121C72.1604 53.8512 71.7613 53.3353 71.5186 52.6952L71.5186 52.6951C71.2875 52.0846 71.1952 51.3337 71.1856 50.6241C71.177 49.9917 71.2338 49.37 71.329 48.8763C70.7805 48.3281 70.1836 47.8279 69.5475 47.3794C64.5011 43.8223 57.0202 45.0936 51.1988 50.5293C50.2286 51.4355 49.4872 52.8651 48.9242 54.64C48.3628 56.4095 47.9889 58.4887 47.732 60.6606C47.0355 66.5428 47.2899 73.0243 47.4102 76.0871C47.4282 76.5466 47.4432 76.9291 47.4515 77.2212L47.4516 77.2219C47.4591 77.5083 47.4494 77.7404 47.4333 77.9132C47.4252 77.9994 47.4154 78.0731 47.4046 78.1327C47.3959 78.1815 47.3821 78.2472 47.3582 78.3026C47.1623 78.7634 46.7983 78.8905 46.5717 78.9333L46.5682 78.9339C46.2481 78.9908 45.9811 78.9298 45.7659 78.8188L45.7641 78.8179C45.4705 78.6642 45.2373 78.3943 45.1325 78.0061L45.1319 78.0036C45.0763 77.7913 45.0662 77.5226 45.0721 77.2707L45.0722 77.2673C45.0739 77.2164 45.0777 77.1662 45.0813 77.1223C45.0851 77.0758 45.0884 77.0383 45.0906 77.0013C45.0929 76.965 45.0934 76.9376 45.0926 76.9165C45.0917 76.8948 45.0895 76.8884 45.0904 76.8916L45.4111 76.8006ZM45.4111 76.8006C45.4353 76.8858 45.4257 77.0023 45.4157 77.1228C45.4114 77.1747 45.4071 77.2274 45.4053 77.2786L44.6498 74.4891C44.6836 74.587 44.7174 74.6847 44.7513 74.7824C44.9834 75.4517 45.2148 76.1192 45.4111 76.8006ZM73.626 52.2239C73.6296 52.2277 73.6327 52.2306 73.6353 52.2328L73.6284 52.234C73.6276 52.2306 73.6268 52.2273 73.626 52.2239ZM73.626 52.2239C73.5738 52.0053 73.4747 51.7781 73.3867 51.6039C73.4157 51.728 73.4505 51.8452 73.4915 51.9526L73.4916 51.953C73.5304 52.0553 73.5608 52.1262 73.5926 52.1783C73.6063 52.2007 73.6175 52.2149 73.626 52.2239Z" fill="#5089AC" stroke="#5089AC" stroke-width="0.666667"/>
<rect x="61.0879" y="63.2578" width="131.704" height="46.9557" rx="16" fill="#5089AC"/>
<rect x="115.454" y="79.4229" width="44.4119" height="6.15812" rx="3.07906" fill="#CCC6D9"/>
<rect x="72.5737" y="88.6602" width="87.5162" height="6.15812" rx="3.07906" fill="white"/>
<ellipse cx="175.946" cy="87.1205" rx="7.65723" ry="7.69765" fill="#E1DCEB"/>
<rect x="6" y="102.516" width="131.704" height="46.9557" rx="16" fill="#E1DCEB"/>
<rect x="38.926" y="118.681" width="44.4119" height="6.15812" rx="3.07906" fill="#5089AC"/>
<rect x="38.926" y="127.918" width="87.5162" height="6.15812" rx="3.07906" fill="white"/>
<ellipse cx="25.1431" cy="126.379" rx="7.65723" ry="7.69765" fill="#CCC6D9"/>
<defs>
<linearGradient id="paint0_linear_2519_16924" x1="95.8081" y1="-0.638926" x2="97.3411" y2="265.091" gradientUnits="userSpaceOnUse">
<stop stop-color="#F2F2F2"/>
<stop offset="1" stop-color="#EFEFEF"/>
</linearGradient>
</defs>
</svg>
