<svg width="46" height="46" viewBox="0 0 46 46" fill="none" xmlns="http://www.w3.org/2000/svg">
<rect x="3" y="3" width="40" height="40" rx="20" fill="#FEF0C7"/>
<rect x="3" y="3" width="40" height="40" rx="20" stroke="#FFFAEB" stroke-width="6"/>
<path d="M22.9997 19.6667V23M22.9997 26.3333H23.008M21.5747 15.3833L14.5163 27.1667C14.3708 27.4187 14.2938 27.7044 14.293 27.9954C14.2922 28.2865 14.3676 28.5726 14.5117 28.8254C14.6558 29.0783 14.8636 29.289 15.1144 29.4366C15.3652 29.5841 15.6503 29.6635 15.9413 29.6667H30.058C30.349 29.6635 30.6341 29.5841 30.8849 29.4366C31.1357 29.289 31.3435 29.0783 31.4876 28.8254C31.6317 28.5726 31.7071 28.2865 31.7063 27.9954C31.7055 27.7044 31.6285 27.4187 31.483 27.1667L24.4247 15.3833C24.2761 15.1384 24.0669 14.9359 23.8173 14.7954C23.5677 14.6549 23.2861 14.5811 22.9997 14.5811C22.7132 14.5811 22.4316 14.6549 22.182 14.7954C21.9324 14.9359 21.7232 15.1384 21.5747 15.3833Z" stroke="#F79009" stroke-width="1.66667" stroke-linecap="round" stroke-linejoin="round"/>
</svg>
