<svg width="140" height="18" viewBox="0 0 140 18" fill="none" xmlns="http://www.w3.org/2000/svg">
<path d="M71.0653 0.246055H58.5438C58.3243 0.234029 58.1045 0.265136 57.8972 0.337578C57.6899 0.410021 57.4992 0.522363 57.3361 0.668117C57.1886 0.818201 57.0745 0.997091 57.001 1.19333C56.9275 1.38956 56.8963 1.59882 56.9093 1.80768C56.8861 2.02391 56.9124 2.24251 56.9861 2.44736C57.0599 2.6522 57.1792 2.83806 57.3352 2.9912C57.4913 3.14434 57.6802 3.26085 57.8879 3.33214C58.0956 3.40343 58.3168 3.42767 58.5353 3.40308H62.8756V15.8117C62.8422 16.3352 63.0185 16.8507 63.3664 17.2467C63.768 17.5714 64.2709 17.7487 64.7896 17.7487C65.3084 17.7487 65.8112 17.5714 66.2129 17.2467C66.5534 16.8472 66.7246 16.3331 66.6909 15.8117V3.39042H71.0568C71.2724 3.40236 71.4883 3.37113 71.6914 3.29861C71.8945 3.22609 72.0808 3.11376 72.239 2.96835C72.3858 2.81009 72.4992 2.6244 72.5725 2.42218C72.6458 2.21996 72.6775 2.0053 72.6657 1.7908C72.6782 1.58199 72.6468 1.37288 72.5733 1.17672C72.4998 0.980557 72.386 0.801619 72.239 0.651234C72.0799 0.510684 71.8943 0.402549 71.693 0.333022C71.4916 0.263495 71.2783 0.233941 71.0653 0.246055Z" fill="#5089AC"/>
<path d="M86.527 12.4181C86.2345 11.8031 85.7806 11.2769 85.2125 10.8945C84.9553 10.7353 84.6765 10.6131 84.3846 10.5315C84.7571 10.4422 85.12 10.3178 85.4686 10.1601C86.3286 9.77668 87.0505 9.14373 87.5384 8.34521C88.0395 7.49886 88.2936 6.5317 88.2725 5.55116C88.2725 3.88401 87.7433 2.59672 86.6806 1.6513C85.6179 0.705885 84.12 0.250057 82.2038 0.250057H76.1735C75.9114 0.224187 75.6469 0.256848 75.3993 0.345629C75.1518 0.43441 74.9276 0.577044 74.7432 0.763C74.5589 0.948956 74.4191 1.17348 74.3343 1.42001C74.2494 1.66653 74.2216 1.92876 74.253 2.18732V15.7988C74.2361 16.0585 74.2711 16.3188 74.3561 16.5651C74.441 16.8113 74.5742 17.0386 74.748 17.2338C75.1487 17.5589 75.6509 17.7366 76.1692 17.7366C76.6874 17.7366 77.1897 17.5589 77.5903 17.2338C77.9324 16.8352 78.1039 16.3204 78.0683 15.7988V10.8691H79.9205C80.3703 10.8548 80.8181 10.9339 81.235 11.1013C81.6336 11.3014 81.9457 11.6371 82.1141 12.0467L84.5041 16.3602C84.7141 16.776 85.0231 17.1352 85.4046 17.4069C85.8019 17.6422 86.2606 17.7567 86.7233 17.7361C87.164 17.7676 87.6016 17.6418 87.9567 17.3816C88.0942 17.2663 88.2056 17.1237 88.2836 16.963C88.3615 16.8022 88.4043 16.627 88.409 16.4488C88.4264 16.0293 88.3116 15.6149 88.0804 15.2628L86.527 12.4181ZM81.5252 8.10041H78.0726V3.22137H81.5252C82.3342 3.16534 83.1387 3.38097 83.8084 3.83336C84.0741 4.0533 84.2831 4.33258 84.4182 4.64813C84.5532 4.96369 84.6105 5.30649 84.5852 5.64823C84.6091 5.99354 84.5513 6.33963 84.4165 6.65904C84.2817 6.97845 84.0735 7.26241 83.8084 7.48842C83.1387 7.94081 82.3342 8.15644 81.5252 8.10041Z" fill="#5089AC"/>
<path d="M100.888 1.59676C100.686 1.13144 100.364 0.726826 99.9536 0.423431C99.5824 0.174833 99.1429 0.0451652 98.6946 0.0520159C98.2517 0.045339 97.8177 0.175146 97.4527 0.423431C97.0353 0.722498 96.7079 1.12804 96.5053 1.59676L90.1677 15.3813C89.9807 15.7519 89.9122 16.17 89.9714 16.58C89.9987 16.7483 90.0595 16.9096 90.1504 17.0545C90.2412 17.1994 90.3602 17.3251 90.5006 17.4241C90.8322 17.6419 91.2253 17.7498 91.623 17.7322C92.059 17.7665 92.4912 17.63 92.8265 17.3523C93.1602 16.9965 93.4275 16.5849 93.616 16.1368L94.6189 13.7817H102.749L103.769 16.1368C103.934 16.5997 104.209 17.0166 104.571 17.3523C104.939 17.6251 105.393 17.7598 105.852 17.7322C106.234 17.7431 106.61 17.6353 106.927 17.4241C107.067 17.3262 107.186 17.2006 107.274 17.0554C107.363 16.9101 107.421 16.7483 107.443 16.58C107.489 16.1621 107.407 15.7403 107.209 15.3686L100.888 1.59676ZM98.6733 4.29796H98.7202L101.503 10.823H95.9121L98.6733 4.29796Z" fill="#5089AC"/>
<path d="M112.449 0.596572C112.257 0.424274 112.032 0.291806 111.787 0.206992C111.542 0.122178 111.283 0.0867356 111.024 0.102758C110.767 0.0858682 110.51 0.120957 110.268 0.205872C110.026 0.290788 109.804 0.42374 109.615 0.596572C109.442 0.788336 109.309 1.0127 109.224 1.25633C109.14 1.49995 109.106 1.75785 109.125 2.0147V15.8499C109.091 16.3689 109.266 16.8799 109.611 17.2722C109.799 17.4466 110.02 17.5811 110.263 17.6675C110.505 17.7538 110.762 17.7903 111.019 17.7745C111.281 17.7941 111.544 17.7596 111.792 17.6732C112.04 17.5867 112.266 17.4501 112.458 17.2722C112.801 16.8743 112.974 16.3594 112.94 15.8372V2.0147C112.958 1.75789 112.924 1.50011 112.839 1.25656C112.755 1.013 112.622 0.7886 112.449 0.596572Z" fill="#5089AC"/>
<path d="M125.902 4.78768L122.64 8.01385C122.415 8.23636 122.415 8.59713 122.64 8.81965L125.902 12.0458C126.127 12.2683 126.492 12.2683 126.717 12.0458L129.979 8.81965C130.204 8.59713 130.204 8.23636 129.979 8.01385L126.717 4.78768C126.492 4.56517 126.127 4.56517 125.902 4.78768Z" fill="#234D70"/>
<path d="M122.935 15.0603L116.789 8.55215L122.611 2.64329C122.919 2.36065 123.113 1.97661 123.157 1.56281C123.176 1.37804 123.157 1.19127 123.101 1.01411C123.044 0.83695 122.951 0.67318 122.828 0.532977C122.663 0.377954 122.465 0.260016 122.249 0.187186C122.034 0.114356 121.805 0.0883425 121.578 0.110915C121.218 0.105535 120.863 0.185119 120.541 0.343048C120.205 0.514238 119.903 0.742878 119.649 1.01835L114.101 6.75417C113.751 7.0876 113.247 7.56031 112.906 7.92328C112.777 8.05999 112.68 8.22324 112.623 8.40129C112.565 8.57935 112.548 8.7678 112.573 8.95311C112.675 9.39705 112.947 9.78445 113.333 10.0336C113.469 10.1518 113.644 10.3248 113.819 10.5021L114.344 11.0508L119.73 16.6642C120.027 16.9721 120.349 17.2545 120.694 17.5083C121.034 17.7211 121.432 17.8243 121.834 17.8038C122.3 17.8357 122.76 17.684 123.114 17.3817C123.259 17.244 123.372 17.0769 123.446 16.8918C123.52 16.7068 123.552 16.5082 123.541 16.3097C123.527 16.0742 123.467 15.8437 123.363 15.6315C123.259 15.4193 123.113 15.2295 122.935 15.073V15.0603Z" fill="#5089AC"/>
<path d="M129.627 15.0607L135.772 8.55247L129.951 2.6436C129.642 2.36096 129.448 1.97692 129.405 1.56312C129.386 1.37807 129.406 1.1912 129.463 1.01406C129.52 0.836918 129.614 0.673286 129.738 0.533288C129.902 0.377898 130.099 0.25968 130.314 0.186807C130.529 0.113934 130.757 0.0881466 130.984 0.111226C131.344 0.106466 131.701 0.186001 132.025 0.34336C132.359 0.514667 132.66 0.743323 132.913 1.01866L138.461 6.75448C138.811 7.08791 139.314 7.56062 139.656 7.92359C139.785 8.0603 139.881 8.22355 139.939 8.4016C139.996 8.57966 140.013 8.76811 139.989 8.95342C139.883 9.39593 139.612 9.78224 139.229 10.0339C139.088 10.1521 138.913 10.3251 138.738 10.5024L138.205 11.0426L132.823 16.6561C132.525 16.963 132.203 17.2453 131.859 17.5002C131.518 17.7119 131.121 17.8151 130.719 17.7956C130.253 17.8266 129.793 17.675 129.439 17.3736C129.295 17.2352 129.182 17.0679 129.108 16.8831C129.035 16.6982 129.002 16.4999 129.012 16.3015C129.026 16.0661 129.086 15.8356 129.19 15.6234C129.294 15.4112 129.44 15.2213 129.618 15.0649L129.627 15.0607Z" fill="#234D70"/>
<path d="M12.2792 12.5995C11.9849 11.9855 11.5295 11.4608 10.9604 11.0801C10.706 10.9186 10.4283 10.7962 10.1368 10.7171C10.5094 10.6265 10.8724 10.5007 11.2208 10.3415C12.0808 9.95812 12.8027 9.32518 13.2906 8.52665C13.7847 7.67833 14.0314 6.71119 14.0033 5.7326C14.0033 4.06967 13.4784 2.77816 12.4157 1.83697C11.3531 0.895767 9.85508 0.43572 7.93887 0.43572H1.92565C1.66908 0.42013 1.41195 0.455409 1.16936 0.539485C0.926774 0.623562 0.703626 0.75474 0.513027 0.925312C0.333282 1.11978 0.195538 1.34846 0.108216 1.59738C0.0208936 1.84629 -0.0141706 2.11021 0.00516772 2.37298V16.0056C-0.0118544 16.2646 0.0231261 16.5243 0.108092 16.7699C0.193058 17.0155 0.326329 17.242 0.500224 17.4364C0.686739 17.6114 0.907598 17.7466 1.14912 17.8337C1.39064 17.9208 1.64768 17.958 1.90431 17.9428C2.16712 17.962 2.43109 17.9269 2.67943 17.8397C2.92778 17.7525 3.15505 17.6152 3.3468 17.4364C3.68547 17.0378 3.85521 16.5251 3.82052 16.0056V11.0548H5.66844C6.1196 11.0401 6.56885 11.1192 6.98717 11.2869C7.37632 11.4897 7.67914 11.8236 7.84072 12.2281L10.2477 16.5458C10.4576 16.9606 10.7667 17.3185 11.1482 17.5883C11.5449 17.8256 12.0037 17.9416 12.4669 17.9217C12.9081 17.9513 13.3455 17.824 13.7003 17.563C13.8359 17.4471 13.9461 17.3048 14.0239 17.1451C14.1017 16.9854 14.1455 16.8116 14.1527 16.6345C14.1673 16.214 14.0528 15.799 13.8241 15.4442L12.2792 12.5995ZM9.56061 7.67408C8.88621 8.13018 8.07506 8.34598 7.26031 8.28607H3.84612V3.40704H7.26031C8.07004 3.35022 8.87523 3.56753 9.54354 4.02325C9.80889 4.24253 10.0177 4.52108 10.1528 4.83591C10.2878 5.15073 10.3452 5.4928 10.3203 5.83389C10.3473 6.17794 10.2927 6.52347 10.1608 6.84295C10.0289 7.16243 9.82338 7.44703 9.56061 7.67408Z" fill="#234D70"/>
<path d="M27.067 3.40341C27.2696 3.41793 27.4731 3.39177 27.6653 3.32649C27.8574 3.26121 28.0343 3.15817 28.1851 3.02356C28.3201 2.87192 28.4234 2.69546 28.4894 2.50426C28.5553 2.31306 28.5824 2.11089 28.5692 1.90931C28.5928 1.70913 28.57 1.50628 28.5027 1.31608C28.4353 1.12587 28.3251 0.953303 28.1804 0.811411C28.0357 0.669519 27.8603 0.562019 27.6674 0.497036C27.4745 0.432054 27.2692 0.411291 27.067 0.436315H18.4632C18.1941 0.419267 17.9242 0.45608 17.6697 0.544553C17.4153 0.633027 17.1815 0.771345 16.9823 0.951231C16.8002 1.1547 16.6607 1.39193 16.5721 1.64914C16.4834 1.90636 16.4474 2.17843 16.4659 2.44955V15.715C16.4475 15.9854 16.4836 16.2568 16.5723 16.5133C16.6609 16.7699 16.8003 17.0064 16.9823 17.2091C17.1815 17.3889 17.4153 17.5273 17.6697 17.6157C17.9242 17.7042 18.1941 17.741 18.4632 17.724H27.067C27.2696 17.7385 27.4731 17.7123 27.6653 17.6471C27.8574 17.5818 28.0343 17.4787 28.1851 17.3441C28.3212 17.1983 28.4255 17.0264 28.4915 16.8391C28.5576 16.6518 28.584 16.453 28.5692 16.2552C28.5885 15.8532 28.4458 15.4601 28.1723 15.1621C28.0215 15.0274 27.8446 14.9244 27.6525 14.8591C27.4603 14.7938 27.2568 14.7677 27.0542 14.7822H20.1362V10.4181H26.5378C26.7432 10.4347 26.9499 10.4096 27.1451 10.3442C27.3403 10.2789 27.52 10.1748 27.673 10.0382C27.8053 9.89046 27.9063 9.71796 27.9701 9.53094C28.0339 9.34391 28.0591 9.14614 28.0443 8.94931C28.0746 8.54263 27.9412 8.14058 27.673 7.83084C27.52 7.6943 27.3403 7.59016 27.1451 7.52483C26.9499 7.4595 26.7432 7.43437 26.5378 7.45099H20.1362V3.40341H27.067Z" fill="#234D70"/>
<path d="M41.7094 3.40339C41.9127 3.418 42.1169 3.39189 42.3098 3.32662C42.5027 3.26135 42.6802 3.15827 42.8319 3.02353C42.9668 2.8719 43.0702 2.69543 43.1361 2.50424C43.202 2.31304 43.2291 2.11087 43.2159 1.90929C43.2296 1.71089 43.2026 1.51181 43.1366 1.32397C43.0706 1.13613 42.967 0.963408 42.8319 0.816147C42.6802 0.681413 42.5027 0.578327 42.3098 0.513057C42.1169 0.447787 41.9127 0.421677 41.7094 0.436292H33.11C32.8408 0.418999 32.5708 0.455698 32.3163 0.544184C32.0619 0.63267 31.8281 0.771118 31.6291 0.951208C31.4454 1.15382 31.3046 1.39082 31.2152 1.64818C31.1258 1.90554 31.0894 2.17804 31.1084 2.44953V15.7149C31.0895 15.9858 31.1259 16.2576 31.2153 16.5143C31.3048 16.7709 31.4455 17.0072 31.6291 17.209C31.8281 17.3891 32.0619 17.5276 32.3163 17.6161C32.5708 17.7045 32.8408 17.7412 33.11 17.7239H41.7094C41.9127 17.7386 42.1169 17.7125 42.3098 17.6472C42.5027 17.5819 42.6802 17.4788 42.8319 17.3441C42.9679 17.1983 43.0722 17.0264 43.1383 16.8391C43.2044 16.6518 43.2308 16.453 43.2159 16.2552C43.2307 16.0528 43.2043 15.8496 43.1383 15.6575C43.0723 15.4654 42.9681 15.2883 42.8319 15.1367C42.6802 15.002 42.5027 14.8989 42.3098 14.8336C42.1169 14.7683 41.9127 14.7422 41.7094 14.7569H34.7829V10.4181H41.1845C41.3868 10.4466 41.5931 10.4283 41.7871 10.3648C41.981 10.3013 42.1575 10.1942 42.3026 10.0519C42.4478 9.9096 42.5576 9.73599 42.6235 9.54469C42.6894 9.35339 42.7096 9.14959 42.6825 8.94928C42.7117 8.54346 42.5801 8.14233 42.3155 7.83082C42.1623 7.69448 41.9826 7.59048 41.7874 7.52516C41.5922 7.45985 41.3856 7.4346 41.1802 7.45096H34.7787V3.40339H41.7094Z" fill="#234D70"/>
<path d="M57.4488 14.9345C57.2878 14.7868 57.098 14.6733 56.8911 14.6007C56.6841 14.5281 56.4644 14.4981 56.2453 14.5124H49.6388V2.32749C49.6575 2.06611 49.6238 1.80365 49.5396 1.5552C49.4554 1.30675 49.3223 1.07723 49.148 0.879822C48.9542 0.708945 48.7281 0.577708 48.4827 0.493678C48.2373 0.409649 47.9775 0.374491 47.7184 0.39023C47.4624 0.374253 47.2058 0.409364 46.9639 0.493474C46.7219 0.577584 46.4996 0.708973 46.31 0.879822C46.1358 1.07723 46.0027 1.30675 45.9185 1.5552C45.8342 1.80365 45.8005 2.06611 45.8192 2.32749V15.7913C45.8048 16.0488 45.8419 16.3066 45.9283 16.5499C46.0147 16.7932 46.1488 17.0173 46.3228 17.2094C46.5104 17.3871 46.7331 17.5245 46.9769 17.6131C47.2207 17.7017 47.4804 17.7396 47.7397 17.7243H56.2453C56.4643 17.7382 56.6839 17.7079 56.8908 17.6354C57.0977 17.5628 57.2875 17.4495 57.4488 17.3023C57.5967 17.1404 57.7106 16.9511 57.7838 16.7453C57.8571 16.5395 57.8883 16.3214 57.8756 16.1036C57.8869 15.8904 57.855 15.6772 57.7817 15.4764C57.7084 15.2756 57.5952 15.0913 57.4488 14.9345Z" fill="#234D70"/>
</svg>
