<svg width="574" height="159" viewBox="0 0 574 159" fill="none" xmlns="http://www.w3.org/2000/svg">
<path d="M215.731 127.369C215.731 125.881 215.981 124.532 216.48 123.324C216.98 122.098 217.666 121.056 218.54 120.198C219.432 119.34 220.484 118.683 221.697 118.228C222.927 117.755 224.273 117.519 225.736 117.519C227.216 117.501 228.571 117.72 229.802 118.175C231.032 118.613 232.093 119.261 232.985 120.119C233.876 120.977 234.572 122.01 235.071 123.219C235.57 124.427 235.82 125.776 235.82 127.264C235.82 128.718 235.57 130.04 235.071 131.231C234.572 132.422 233.876 133.446 232.985 134.304C232.093 135.162 231.032 135.837 229.802 136.327C228.571 136.8 227.216 137.045 225.736 137.062C224.273 137.062 222.927 136.835 221.697 136.379C220.484 135.907 219.432 135.25 218.54 134.409C217.666 133.551 216.98 132.527 216.48 131.336C215.981 130.145 215.731 128.823 215.731 127.369ZM219.262 127.159C219.262 128.157 219.414 129.077 219.717 129.917C220.038 130.758 220.484 131.485 221.055 132.098C221.625 132.711 222.303 133.192 223.087 133.542C223.89 133.893 224.782 134.068 225.762 134.068C226.743 134.068 227.635 133.893 228.437 133.542C229.24 133.192 229.926 132.711 230.497 132.098C231.068 131.485 231.505 130.758 231.808 129.917C232.129 129.077 232.289 128.157 232.289 127.159C232.289 126.231 232.129 125.364 231.808 124.559C231.505 123.753 231.068 123.052 230.497 122.457C229.926 121.844 229.24 121.371 228.437 121.039C227.635 120.688 226.743 120.513 225.762 120.513C224.782 120.513 223.89 120.688 223.087 121.039C222.303 121.371 221.625 121.844 221.055 122.457C220.484 123.052 220.038 123.753 219.717 124.559C219.414 125.364 219.262 126.231 219.262 127.159Z" fill="#373133"/>
<path d="M246.52 117.991H253.1C254.01 117.991 254.884 118.079 255.722 118.254C256.578 118.412 257.336 118.692 257.996 119.095C258.655 119.497 259.181 120.04 259.574 120.723C259.966 121.406 260.162 122.273 260.162 123.324C260.162 124.672 259.779 125.802 259.012 126.713C258.263 127.623 257.184 128.175 255.775 128.368L260.804 136.59H256.738L252.351 128.709H249.89V136.59H246.52V117.991ZM252.512 125.872C252.993 125.872 253.475 125.854 253.956 125.819C254.438 125.767 254.875 125.662 255.267 125.504C255.677 125.329 256.007 125.075 256.257 124.742C256.506 124.392 256.631 123.911 256.631 123.298C256.631 122.755 256.515 122.317 256.284 121.984C256.052 121.651 255.749 121.406 255.374 121.249C255 121.074 254.581 120.96 254.117 120.907C253.671 120.855 253.234 120.828 252.806 120.828H249.89V125.872H252.512Z" fill="#373133"/>
<path d="M270.859 117.991H278.322C279.57 117.991 280.774 118.184 281.933 118.569C283.092 118.937 284.117 119.506 285.009 120.277C285.901 121.047 286.614 122.019 287.149 123.193C287.684 124.348 287.952 125.714 287.952 127.291C287.952 128.884 287.639 130.268 287.015 131.441C286.409 132.597 285.615 133.56 284.635 134.331C283.672 135.084 282.593 135.653 281.398 136.038C280.221 136.406 279.062 136.59 277.921 136.59H270.859V117.991ZM276.744 133.595C277.796 133.595 278.785 133.481 279.713 133.254C280.658 133.008 281.478 132.641 282.174 132.15C282.869 131.642 283.413 130.994 283.805 130.206C284.216 129.401 284.421 128.429 284.421 127.291C284.421 126.17 284.242 125.207 283.886 124.401C283.529 123.595 283.03 122.947 282.388 122.457C281.764 121.949 281.015 121.581 280.141 121.354C279.285 121.109 278.34 120.986 277.305 120.986H274.229V133.595H276.744Z" fill="#373133"/>
<path d="M298.646 117.991H311.191V120.986H302.016V125.557H310.71V128.551H302.016V133.595H311.673V136.59H298.646V117.991Z" fill="#373133"/>
<path d="M322.488 117.991H329.068C329.978 117.991 330.852 118.079 331.69 118.254C332.546 118.412 333.304 118.692 333.963 119.095C334.623 119.497 335.149 120.04 335.542 120.723C335.934 121.406 336.13 122.273 336.13 123.324C336.13 124.672 335.747 125.802 334.98 126.713C334.231 127.623 333.152 128.175 331.743 128.368L336.772 136.59H332.706L328.319 128.709H325.858V136.59H322.488V117.991ZM328.48 125.872C328.961 125.872 329.443 125.854 329.924 125.819C330.406 125.767 330.843 125.662 331.235 125.504C331.645 125.329 331.975 125.075 332.225 124.742C332.474 124.392 332.599 123.911 332.599 123.298C332.599 122.755 332.483 122.317 332.251 121.984C332.02 121.651 331.716 121.406 331.342 121.249C330.968 121.074 330.548 120.96 330.085 120.907C329.639 120.855 329.202 120.828 328.774 120.828H325.858V125.872H328.48Z" fill="#373133"/>
<path d="M346.746 117.991H350.117V136.59H346.746V117.991Z" fill="#373133"/>
<path d="M361.761 117.991H366.229L375.403 131.809H375.457V117.991H378.827V136.59H374.548L365.185 122.326H365.132V136.59H361.761V117.991Z" fill="#373133"/>
<path d="M407.366 135.224C405.03 136.45 402.418 137.062 399.529 137.062C398.066 137.062 396.72 136.835 395.489 136.379C394.277 135.907 393.225 135.25 392.333 134.409C391.459 133.551 390.773 132.527 390.273 131.336C389.774 130.145 389.524 128.823 389.524 127.369C389.524 125.881 389.774 124.532 390.273 123.324C390.773 122.098 391.459 121.056 392.333 120.198C393.225 119.34 394.277 118.683 395.489 118.228C396.72 117.755 398.066 117.519 399.529 117.519C400.973 117.519 402.328 117.694 403.594 118.044C404.861 118.377 405.993 118.981 406.992 119.856L404.504 122.326C403.898 121.748 403.158 121.301 402.284 120.986C401.428 120.671 400.518 120.513 399.555 120.513C398.575 120.513 397.683 120.688 396.88 121.039C396.096 121.371 395.418 121.844 394.848 122.457C394.277 123.052 393.831 123.753 393.51 124.559C393.207 125.364 393.055 126.231 393.055 127.159C393.055 128.157 393.207 129.077 393.51 129.917C393.831 130.758 394.277 131.485 394.848 132.098C395.418 132.711 396.096 133.192 396.88 133.542C397.683 133.893 398.575 134.068 399.555 134.068C400.411 134.068 401.214 133.989 401.963 133.831C402.73 133.674 403.407 133.429 403.996 133.096V128.709H400.117V125.714H407.366V135.224Z" fill="#373133"/>
<path d="M443.537 121.984C443.18 121.476 442.699 121.109 442.093 120.881C441.504 120.636 440.88 120.513 440.22 120.513C439.828 120.513 439.444 120.557 439.07 120.645C438.713 120.732 438.383 120.872 438.08 121.065C437.795 121.257 437.563 121.511 437.385 121.827C437.206 122.124 437.117 122.483 437.117 122.904C437.117 123.534 437.34 124.016 437.786 124.348C438.232 124.681 438.785 124.97 439.444 125.215C440.104 125.46 440.826 125.697 441.611 125.925C442.396 126.152 443.118 126.467 443.778 126.87C444.438 127.273 444.99 127.807 445.436 128.473C445.882 129.138 446.105 130.022 446.105 131.126C446.105 132.124 445.918 133 445.543 133.753C445.169 134.488 444.66 135.101 444.018 135.591C443.394 136.082 442.663 136.45 441.825 136.695C440.987 136.94 440.104 137.062 439.177 137.062C438 137.062 436.868 136.87 435.78 136.485C434.692 136.099 433.756 135.451 432.971 134.541L435.512 132.124C435.922 132.737 436.457 133.218 437.117 133.569C437.795 133.901 438.508 134.068 439.257 134.068C439.649 134.068 440.042 134.015 440.434 133.91C440.826 133.805 441.183 133.648 441.504 133.437C441.825 133.227 442.084 132.965 442.28 132.649C442.476 132.317 442.574 131.94 442.574 131.52C442.574 130.837 442.351 130.311 441.905 129.944C441.459 129.576 440.907 129.269 440.247 129.024C439.587 128.762 438.865 128.516 438.08 128.289C437.296 128.061 436.573 127.755 435.913 127.369C435.254 126.967 434.701 126.441 434.255 125.793C433.809 125.128 433.586 124.243 433.586 123.14C433.586 122.177 433.782 121.345 434.175 120.645C434.585 119.944 435.111 119.366 435.753 118.911C436.413 118.438 437.162 118.088 438 117.86C438.838 117.632 439.694 117.519 440.568 117.519C441.566 117.519 442.529 117.667 443.457 117.965C444.402 118.263 445.249 118.753 445.998 119.436L443.537 121.984Z" fill="#373133"/>
<path d="M461.732 128.63L454.617 117.991H458.843L463.498 125.399L468.206 117.991H472.218L465.103 128.63V136.59H461.732V128.63Z" fill="#373133"/>
<path d="M490.725 121.984C490.369 121.476 489.887 121.109 489.281 120.881C488.693 120.636 488.068 120.513 487.409 120.513C487.016 120.513 486.633 120.557 486.258 120.645C485.902 120.732 485.572 120.872 485.269 121.065C484.983 121.257 484.751 121.511 484.573 121.827C484.395 122.124 484.306 122.483 484.306 122.904C484.306 123.534 484.529 124.016 484.974 124.348C485.42 124.681 485.973 124.97 486.633 125.215C487.293 125.46 488.015 125.697 488.799 125.925C489.584 126.152 490.306 126.467 490.966 126.87C491.626 127.273 492.179 127.807 492.625 128.473C493.07 129.138 493.293 130.022 493.293 131.126C493.293 132.124 493.106 133 492.732 133.753C492.357 134.488 491.849 135.101 491.207 135.591C490.583 136.082 489.852 136.45 489.013 136.695C488.175 136.94 487.293 137.062 486.365 137.062C485.188 137.062 484.056 136.87 482.968 136.485C481.88 136.099 480.944 135.451 480.159 134.541L482.701 132.124C483.111 132.737 483.646 133.218 484.306 133.569C484.983 133.901 485.697 134.068 486.446 134.068C486.838 134.068 487.23 134.015 487.623 133.91C488.015 133.805 488.371 133.648 488.693 133.437C489.013 133.227 489.272 132.965 489.468 132.649C489.664 132.317 489.762 131.94 489.762 131.52C489.762 130.837 489.54 130.311 489.094 129.944C488.648 129.576 488.095 129.269 487.435 129.024C486.775 128.762 486.053 128.516 485.269 128.289C484.484 128.061 483.762 127.755 483.102 127.369C482.442 126.967 481.889 126.441 481.443 125.793C480.998 125.128 480.775 124.243 480.775 123.14C480.775 122.177 480.971 121.345 481.363 120.645C481.773 119.944 482.299 119.366 482.941 118.911C483.601 118.438 484.35 118.088 485.188 117.86C486.026 117.632 486.882 117.519 487.756 117.519C488.755 117.519 489.718 117.667 490.645 117.965C491.59 118.263 492.437 118.753 493.186 119.436L490.725 121.984Z" fill="#373133"/>
<path d="M508.172 120.986H502.367V117.991H517.347V120.986H511.542V136.59H508.172V120.986Z" fill="#373133"/>
<path d="M527.143 117.991H539.688V120.986H530.513V125.557H539.207V128.551H530.513V133.595H540.17V136.59H527.143V117.991Z" fill="#373133"/>
<path d="M551.066 117.991H556.201L561.257 131.021L566.366 117.991H571.448V136.59H568.239V121.144H568.185L562.434 136.59H560.08L554.329 121.144H554.275V136.59H551.066V117.991Z" fill="#373133"/>
<path d="M259.491 29.247H215.731V41.8229H259.491V29.247Z" fill="url(#paint0_linear_2328_3095)"/>
<path d="M257.854 54.5174H215.731V93.6586H261.129V80.5579H229.924V67.4572H257.854V54.5174Z" fill="url(#paint1_linear_2328_3095)"/>
<path d="M282.143 41.8018H300.52V93.6586H314.713V41.8018H333.09V29.247H282.143V41.8018Z" fill="url(#paint2_linear_2328_3095)"/>
<path d="M370.056 29.247H355.863V93.6586H370.056V65.8197H397.622V93.6586H411.814V29.247H397.622V53.2649H370.056V29.247Z" fill="url(#paint3_linear_2328_3095)"/>
<path fill-rule="evenodd" clip-rule="evenodd" d="M439.552 47.4423C437.854 51.6273 437.005 56.2974 437.005 61.4528C437.005 66.6081 437.854 71.2783 439.552 75.4632C441.311 79.6482 443.737 83.2266 446.83 86.1985C449.923 89.1098 453.593 91.3538 457.838 92.9308C462.084 94.5077 466.724 95.2962 471.758 95.2962C476.792 95.2962 481.432 94.5077 485.677 92.9308C489.923 91.3538 493.592 89.1098 496.685 86.1985C499.779 83.2266 502.174 79.6482 503.873 75.4632C505.631 71.2783 506.511 66.6081 506.511 61.4528C506.511 56.2974 505.631 51.6273 503.873 47.4423C502.174 43.2574 499.779 39.7093 496.685 36.798C493.592 33.8261 489.923 31.5517 485.677 29.9748C481.432 28.3978 476.792 27.6094 471.758 27.6094C466.724 27.6094 462.084 28.3978 457.838 29.9748C453.593 31.5517 449.923 33.8261 446.83 36.798C443.737 39.7093 441.311 43.2574 439.552 47.4423ZM457.201 76.373C455.443 74.4928 454.078 72.3093 453.107 69.8226C452.198 67.2753 451.743 64.4853 451.743 61.4528C451.743 58.4809 452.198 55.7212 453.107 53.1739C454.078 50.6265 455.443 48.4431 457.201 46.6235C458.96 44.7434 461.053 43.2877 463.479 42.2567C465.966 41.2256 468.725 40.71 471.758 40.71C474.79 40.71 477.52 41.2256 479.946 42.2567C482.432 43.2877 484.555 44.7434 486.314 46.6235C488.073 48.4431 489.407 50.6265 490.317 53.1739C491.287 55.7212 491.773 58.4809 491.773 61.4528C491.773 64.4853 491.287 67.2753 490.317 69.8226C489.407 72.3093 488.073 74.4928 486.314 76.373C484.555 78.1925 482.432 79.6178 479.946 80.6489C477.52 81.68 474.79 82.1955 471.758 82.1955C468.725 82.1955 465.966 81.68 463.479 80.6489C461.053 79.6178 458.96 78.1925 457.201 76.373Z" fill="url(#paint4_linear_2328_3095)"/>
<path d="M558.835 41.8018C560.836 42.4689 562.413 43.5303 563.565 44.986L573.3 34.3417C570.571 31.9156 567.508 30.1871 564.111 29.156C560.715 28.1249 557.197 27.6094 553.558 27.6094C550.404 27.6094 547.341 28.0643 544.369 28.974C541.397 29.8231 538.759 31.1271 536.454 32.886C534.21 34.6449 532.391 36.8284 530.996 39.4364C529.661 42.0444 528.994 45.0769 528.994 48.5341C528.994 52.1125 529.722 54.9934 531.178 57.1769C532.694 59.3603 534.574 61.1192 536.818 62.4535C539.062 63.7878 541.488 64.8493 544.096 65.6377C546.704 66.4262 549.13 67.2146 551.374 68.0031C553.619 68.7916 555.468 69.762 556.924 70.9144C558.44 72.0061 559.198 73.5224 559.198 75.4632C559.198 76.6156 558.895 77.6163 558.289 78.4655C557.743 79.3146 556.985 80.0121 556.014 80.5579C555.105 81.1038 554.043 81.5283 552.83 81.8316C551.678 82.0742 550.525 82.1955 549.373 82.1955C547.008 82.1955 544.703 81.68 542.459 80.6489C540.275 79.5572 538.456 78.0409 537 76.1001L526.902 87.1992C529.995 90.0498 533.331 92.112 536.909 93.3857C540.488 94.6593 544.369 95.2962 548.554 95.2962C551.89 95.2962 555.044 94.8716 558.016 94.0225C561.048 93.1734 563.687 91.8694 565.931 90.1105C568.235 88.3516 570.055 86.1378 571.389 83.4692C572.724 80.8005 573.391 77.677 573.391 74.0986C573.391 70.3382 572.663 67.3359 571.207 65.0919C569.752 62.8478 567.902 61.0585 565.658 59.7242C563.474 58.3899 561.109 57.3588 558.562 56.631C556.014 55.9032 553.619 55.1754 551.374 54.4476C549.191 53.7197 547.371 52.8403 545.916 51.8092C544.46 50.7782 543.732 49.2922 543.732 47.3514C543.732 46.1383 544.036 45.1073 544.642 44.2581C545.249 43.409 546.037 42.7419 547.008 42.2567C547.978 41.7108 549.009 41.3166 550.101 41.074C551.193 40.8313 552.254 40.71 553.285 40.71C555.044 40.71 556.894 41.074 558.835 41.8018Z" fill="url(#paint5_linear_2328_3095)"/>
<path d="M133.63 3.74607C133.63 -1.35397 122.656 -1.14229 122.656 3.74607V50.0774C122.656 61.7665 134.651 68.1424 146.391 68.1424C158.131 68.1424 168.085 61.979 168.085 50.0774V3.74607C168.085 -1.35363 157.11 -1.1411 157.11 3.74607V50.0774C157.11 53.4789 150.985 53.2663 150.985 50.0774V3.74607C150.985 -1.35363 140.011 -1.1411 140.011 3.74607V50.0774C140.011 53.4789 133.63 53.2663 133.63 50.0774V3.74607Z" fill="url(#paint6_linear_2328_3095)"/>
<path d="M60.9687 15.9141C73.0018 12.4484 85.7393 12.465 97.7142 15.9141C101.156 16.9055 104.75 14.9188 105.742 11.4768C106.733 8.03478 104.746 4.44077 101.304 3.44937C86.9895 -0.673695 71.7632 -0.693574 57.3787 3.44935C41.2633 8.09075 27.0333 17.7183 16.7318 30.9499C6.43028 44.1816 0.587289 60.3367 0.0419704 77.0957C-0.503349 93.8548 4.27706 110.355 13.6966 124.229C23.1162 138.102 36.6904 148.634 52.4699 154.312C68.2495 159.991 85.423 160.525 101.525 155.837C117.627 151.149 131.829 141.48 142.092 128.219C151.277 116.349 156.885 102.149 158.317 87.2816C158.661 83.7161 156.049 80.5473 152.483 80.2038C148.918 79.8603 145.749 82.4722 145.405 86.0376C144.207 98.4732 139.517 110.351 131.834 120.28C123.249 131.373 111.369 139.461 97.8987 143.382C84.4289 147.304 70.0625 146.858 56.8623 142.107C43.6622 137.357 32.3074 128.547 24.4282 116.942C16.5489 105.338 12.5504 91.5355 13.0066 77.5176C13.4627 63.4996 18.35 49.9865 26.967 38.9185C35.584 27.8505 47.4875 19.7968 60.9687 15.9141Z" fill="url(#paint7_linear_2328_3095)"/>
<path fill-rule="evenodd" clip-rule="evenodd" d="M66.6071 36.3447C54.9101 36.3447 45.4277 45.7006 45.4277 57.2417V101.761C45.4277 113.303 54.9101 122.658 66.6071 122.658H92.3907C104.088 122.658 113.57 113.303 113.57 101.761V57.2417C113.57 45.7006 104.088 36.3447 92.3907 36.3447H66.6071ZM101.599 57.2417C101.599 52.2239 97.4764 48.1561 92.3907 48.1561H66.6071C61.5214 48.1561 57.3987 52.2239 57.3987 57.2417V73.5959H87.3261C90.6318 73.5959 93.3116 76.24 93.3116 79.5016C93.3116 82.7632 90.6318 85.4073 87.3261 85.4073H57.3987V101.761C57.3987 106.779 61.5214 110.847 66.6071 110.847H92.3907C97.4764 110.847 101.599 106.779 101.599 101.761V57.2417Z" fill="url(#paint8_linear_2328_3095)"/>
<defs>
<linearGradient id="paint0_linear_2328_3095" x1="418.015" y1="27.6094" x2="418.015" y2="95.2962" gradientUnits="userSpaceOnUse">
<stop stop-color="#373133"/>
<stop offset="1"/>
</linearGradient>
<linearGradient id="paint1_linear_2328_3095" x1="418.015" y1="27.6094" x2="418.015" y2="95.2962" gradientUnits="userSpaceOnUse">
<stop stop-color="#373133"/>
<stop offset="1"/>
</linearGradient>
<linearGradient id="paint2_linear_2328_3095" x1="418.015" y1="27.6094" x2="418.015" y2="95.2962" gradientUnits="userSpaceOnUse">
<stop stop-color="#373133"/>
<stop offset="1"/>
</linearGradient>
<linearGradient id="paint3_linear_2328_3095" x1="418.015" y1="27.6094" x2="418.015" y2="95.2962" gradientUnits="userSpaceOnUse">
<stop stop-color="#373133"/>
<stop offset="1"/>
</linearGradient>
<linearGradient id="paint4_linear_2328_3095" x1="418.015" y1="27.6094" x2="418.015" y2="95.2962" gradientUnits="userSpaceOnUse">
<stop stop-color="#373133"/>
<stop offset="1"/>
</linearGradient>
<linearGradient id="paint5_linear_2328_3095" x1="418.015" y1="27.6094" x2="418.015" y2="95.2962" gradientUnits="userSpaceOnUse">
<stop stop-color="#373133"/>
<stop offset="1"/>
</linearGradient>
<linearGradient id="paint6_linear_2328_3095" x1="145.37" y1="17.9998" x2="145.37" y2="75.1568" gradientUnits="userSpaceOnUse">
<stop stop-color="#609CF6"/>
<stop offset="1" stop-color="#0841C5"/>
</linearGradient>
<linearGradient id="paint7_linear_2328_3095" x1="79.1737" y1="42.2573" x2="79.1737" y2="175.332" gradientUnits="userSpaceOnUse">
<stop stop-color="#609CF6"/>
<stop offset="1" stop-color="#0841C5"/>
</linearGradient>
<linearGradient id="paint8_linear_2328_3095" x1="79.4989" y1="59.1445" x2="79.4989" y2="131.543" gradientUnits="userSpaceOnUse">
<stop stop-color="#609CF6"/>
<stop offset="1" stop-color="#0841C5"/>
</linearGradient>
</defs>
</svg>
