<svg width="169" height="159" viewBox="0 0 169 159" fill="none" xmlns="http://www.w3.org/2000/svg">
<path d="M133.63 3.74607C133.63 -1.35397 122.656 -1.14229 122.656 3.74607V50.0774C122.656 61.7665 134.651 68.1424 146.391 68.1424C158.131 68.1424 168.085 61.979 168.085 50.0774V3.74607C168.085 -1.35363 157.11 -1.1411 157.11 3.74607V50.0774C157.11 53.4789 150.985 53.2663 150.985 50.0774V3.74607C150.985 -1.35363 140.011 -1.1411 140.011 3.74607V50.0774C140.011 53.4789 133.63 53.2663 133.63 50.0774V3.74607Z" fill="url(#paint0_linear_2328_3091)"/>
<path d="M60.9687 15.9141C73.0018 12.4484 85.7393 12.465 97.7142 15.9141C101.156 16.9055 104.75 14.9188 105.742 11.4768C106.733 8.03478 104.746 4.44077 101.304 3.44937C86.9895 -0.673695 71.7632 -0.693574 57.3787 3.44935C41.2633 8.09075 27.0333 17.7183 16.7318 30.9499C6.43028 44.1816 0.587289 60.3367 0.0419704 77.0957C-0.503349 93.8548 4.27706 110.355 13.6966 124.229C23.1162 138.102 36.6904 148.634 52.4699 154.312C68.2495 159.991 85.423 160.525 101.525 155.837C117.627 151.149 131.829 141.48 142.092 128.219C151.277 116.349 156.885 102.149 158.317 87.2816C158.661 83.7161 156.049 80.5473 152.483 80.2038C148.918 79.8603 145.749 82.4722 145.405 86.0376C144.207 98.4732 139.517 110.351 131.834 120.28C123.249 131.373 111.369 139.461 97.8987 143.382C84.4289 147.304 70.0625 146.858 56.8623 142.107C43.6622 137.357 32.3074 128.547 24.4282 116.942C16.5489 105.338 12.5504 91.5355 13.0066 77.5176C13.4627 63.4996 18.35 49.9865 26.967 38.9185C35.584 27.8505 47.4875 19.7968 60.9687 15.9141Z" fill="url(#paint1_linear_2328_3091)"/>
<path fill-rule="evenodd" clip-rule="evenodd" d="M66.6071 36.3447C54.9101 36.3447 45.4277 45.7006 45.4277 57.2417V101.761C45.4277 113.303 54.9101 122.658 66.6071 122.658H92.3907C104.088 122.658 113.57 113.303 113.57 101.761V57.2417C113.57 45.7006 104.088 36.3447 92.3907 36.3447H66.6071ZM101.599 57.2417C101.599 52.2239 97.4764 48.1561 92.3907 48.1561H66.6071C61.5214 48.1561 57.3987 52.2239 57.3987 57.2417V73.5959H87.3261C90.6318 73.5959 93.3116 76.24 93.3116 79.5016C93.3116 82.7632 90.6318 85.4073 87.3261 85.4073H57.3987V101.761C57.3987 106.779 61.5214 110.847 66.6071 110.847H92.3907C97.4764 110.847 101.599 106.779 101.599 101.761V57.2417Z" fill="url(#paint2_linear_2328_3091)"/>
<defs>
<linearGradient id="paint0_linear_2328_3091" x1="145.37" y1="17.9998" x2="145.37" y2="75.1568" gradientUnits="userSpaceOnUse">
<stop stop-color="#609CF6"/>
<stop offset="1" stop-color="#0841C5"/>
</linearGradient>
<linearGradient id="paint1_linear_2328_3091" x1="79.1737" y1="42.2573" x2="79.1737" y2="175.332" gradientUnits="userSpaceOnUse">
<stop stop-color="#609CF6"/>
<stop offset="1" stop-color="#0841C5"/>
</linearGradient>
<linearGradient id="paint2_linear_2328_3091" x1="79.4989" y1="59.1445" x2="79.4989" y2="131.543" gradientUnits="userSpaceOnUse">
<stop stop-color="#609CF6"/>
<stop offset="1" stop-color="#0841C5"/>
</linearGradient>
</defs>
</svg>
